#N canvas 8 0 656 677 12;
#X floatatom 147 213 0 0 0 0 - - -;
#X obj 147 187 + 1;
#X msg 147 83 bang;
#X obj 147 135 metro 500;
#X msg 56 141 stop;
#X obj 147 161 float;
#X obj 147 109 trigger bang bang;
#X msg 261 141 0;
#X obj 56 115 select 10;
#X floatatom 10 372 0 0 0 0 - - -;
#X obj 10 398 >= 0;
#X obj 10 424 select 0 1;
#X obj 10 522 float;
#X floatatom 64 549 0 0 0 0 - - -;
#X msg 44 492 bang;
#X obj 64 523 + 1;
#X msg 10 492 -1;
#X text 277 609 updated for Pd version 0.34;
#X text 8 9 6.もうすこし複雑なカウンター;
#X text 32 47 これは、1 - 10 までを数えるカウンターです
;
#X text 184 82 <--- ここをクリックしてスタート;
#X text 304 109 初期化は2段階にわたって行われる。;
#X text 305 138 まず、0をセットする。;
#X text 305 157 （メトロノームがスタートする前に）
;
#X text 9 164 条件により;
#X text 9 181 メトロノームを;
#X text 10 195 とめる;
#X text 10 242 新しいオブジェクト"select" がでてきましたが、
;
#X text 10 259 指定した数値（この場合は10)が入力されると、bangを出力します。
;
#X text 10 295 この機能は、入力が、0かプラスの時に、カウントをして、
;
#X text 10 313 入力が、マイナスの時に、カウンターをクリアする。というような、
;
#X text 10 332 条件判断に使えます。（以下の例）;
#X text 56 396 <-- 真か偽か。 真(true)なら 1を出力、偽(false)なら
0を出力;
#X text 105 423 <-- 入力に応じて、1番目か、2番目から、bangを出力
;
#X text 130 437 最初の引数 0が入力されたら一番左のアウトレットから
;
#X text 130 451 ２番目の引数 1が入力されたら左から２番目のアウトレットから、bangを出力。
;
#X text 130 464 それ以外の時は、一番右のアウトレットから、入力がそのまま出力される
;
#X text 105 488 <-- selectの結果により、floatが、-1で”初期化"されたり
;
#X text 130 503 bangで、floatの中身が出力される。;
#X text 130 517 これにより、カウンターが 0に戻ったり、増加したりする。
;
#X connect 1 0 0 0;
#X connect 1 0 5 1;
#X connect 1 0 8 0;
#X connect 2 0 6 0;
#X connect 3 0 5 0;
#X connect 4 0 3 0;
#X connect 5 0 1 0;
#X connect 6 0 3 0;
#X connect 6 1 7 0;
#X connect 7 0 5 1;
#X connect 8 0 4 0;
#X connect 9 0 10 0;
#X connect 10 0 11 0;
#X connect 11 0 16 0;
#X connect 11 1 14 0;
#X connect 12 0 15 0;
#X connect 14 0 12 0;
#X connect 15 0 12 1;
#X connect 15 0 13 0;
#X connect 16 0 12 0;
