#N canvas 799 383 632 644 12;
#X msg 64 96 1;
#X obj 89 195 + 1;
#X obj 209 232 print x1;
#X obj 64 254 print x3;
#X obj 114 167 print x2;
#X obj 209 145 + 1;
#X obj 209 174 + 1;
#X obj 209 203 + 1;
#X obj 64 125 t f f f f;
#X obj 89 224 print x2;
#X text 102 96 <-- click here;
#X msg 76 368 1;
#X obj 115 398 + 1;
#X obj 76 397 f;
#X floatatom 76 429 0 0 0 0 - - -;
#X text 378 591 updated for Pd version 0.34;
#X msg 75 530 1;
#X obj 114 560 + 1;
#X obj 75 559 f;
#X floatatom 75 591 0 0 0 0 - - -;
#X text 7 6 8.デプス・ファースト（メッセージの流れ方）
;
#X text 115 530 <-- better;
#X text 20 58 Pdでは、メッセージは、depth first（後ろのほうが先に）で通過していきます。
;
#X text 144 121 <-- これは、 trigger float float float float の略
;
#X text 20 288 ターミナルウィンドウに、最初に"x1"が出力され、
;
#X text 20 306 次に"x2"、"x2"、"x3"の順で、出力されたとおもいます。
;
#X text 20 343 なので、こういうことはするべきではないです。
;
#X text 20 458 なぜなら この"depth"は無限で、あなたが見たカウンターは
;
#X text 20 474 いつも、どこかのコールドインレットで、区切られたメッセージチェーンを持っています。
;
#X text 116 368 <-- これは、クリックするべきではないのですが・・・・
;
#X text 180 395 予想外の結果になり、Pdウインドウに、stack
overflow と、;
#X text 182 412 赤字でエラーメッセージが出力されていると思います
;
#X connect 0 0 8 0;
#X connect 1 0 9 0;
#X connect 5 0 6 0;
#X connect 6 0 7 0;
#X connect 7 0 2 0;
#X connect 8 0 3 0;
#X connect 8 1 1 0;
#X connect 8 2 4 0;
#X connect 8 3 5 0;
#X connect 11 0 13 0;
#X connect 12 0 13 0;
#X connect 13 0 14 0;
#X connect 13 0 12 0;
#X connect 16 0 18 0;
#X connect 17 0 18 1;
#X connect 18 0 19 0;
#X connect 18 0 17 0;
