#N canvas 734 514 738 532 12;
#X floatatom 88 224 0 0 0 0 - - -;
#X obj 88 197 receive crackers;
#X obj 88 170 send crackers;
#X obj 389 170 send pickles;
#X floatatom 390 224 0 0 0 0 - - -;
#X obj 390 197 receive pickles;
#X msg 51 342 \; pickles 99 \; crackers 56;
#X floatatom 88 143 0 0 0 0 - - -;
#X floatatom 389 143 0 0 0 0 - - -;
#X obj 440 440 r crackers;
#X obj 440 413 s crackers;
#X text 459 483 updated for Pd version 0.34;
#X text 9 16 9.ワイヤレスなメッセージの送信・受信
;
#X text 50 42 send とreceive オブジェクトは、ローカルでない接続(パッチコードのない)を可能にします。
;
#X text 50 61 これらは、広域的に使用することができ、もし望むなら、二つの違うパッチウインドウ間での
;
#X text 50 78 メッセージのやり取りを可能にします。
;
#X text 50 95 "send"に送られた、あらゆるメッセージは、同じ引数の名前がついた、"recieve"から出力されます。
;
#X text 50 115 同じ名前であれば、いくつでも共有されます。（右側2つの例）
;
#X text 50 281 また、メッセージボックスの、セミコロン機能を使って、receiveオブジェクトに
;
#X text 50 299 直接送信することもできます。この機能は、メッセージの一斉送信に便利です。
;
#X text 168 340 この処理は、ゼロタイムで行われます、
;
#X text 168 358 たとえば、"timer" オブジェクトを使って、時間を計っても
;
#X text 168 376 ０になると思います;
#X text 50 428 send と receive は、右の様に略して書くこともできます:
;
#X floatatom 250 224 0 0 0 0 - - -;
#X obj 250 197 receive pickles;
#X obj 250 170 send pickles;
#X floatatom 250 143 0 0 0 0 - - -;
#X connect 1 0 0 0;
#X connect 5 0 4 0;
#X connect 7 0 2 0;
#X connect 8 0 3 0;
#X connect 25 0 24 0;
#X connect 27 0 26 0;
