#N canvas 406 295 675 777 12;
#X obj 211 411 print;
#X msg 52 134 3 \, 4 \, 5;
#X msg 44 107 3 4 5;
#X msg 57 383 3 \$1 5;
#X floatatom 57 356 4 0 0 0 - - -;
#X msg 211 385 \$2 \$1 5;
#X msg 211 360 45 67;
#X msg 289 360 45 67;
#X floatatom 28 524 4 0 0 0 - - -;
#X floatatom 76 524 4 0 0 0 - - -;
#X floatatom 332 224 4 0 0 0 - - -;
#X floatatom 186 227 4 0 0 0 - - -;
#X obj 186 200 receive number9;
#X obj 332 200 receive 9bis;
#X obj 44 223 print;
#X msg 65 161 3 \; number9 5 \; 9bis 45;
#X text 406 687 updated for Pd version 0.34;
#X msg 289 385 \; number9 \$1 \; 9bis \$2;
#X obj 57 409 print;
#X obj 28 606 print;
#X obj 28 554 pack 0 0 0;
#X floatatom 124 524 4 0 0 0 - - -;
#X msg 28 580 cis \$1 \, boom \$2 \, bah \$3;
#X text 16 6 10.メッセージについて;
#X text 27 58 メッセージをセパレートをするために、セミコロンを使う代わりに、
;
#X text 27 75 コンマをつかうことができます、同じ行き先に、メッセージを分割して流し続けます
;
#X text 109 103 <-- ひとつのメッセージとして扱われるリスト
"3 4 5".;
#X text 126 134 <-- 三つの個別なメッセージ;
#X text 167 159 <-- 三つの個別な行き先をもった、個別のメッセージ
;
#X text 27 262 "\$1"は、メッセージのなかの変数としてつかえます。
;
#X text 27 278 "\$1"があるメッセージボックスに、数値を送ると
;
#X text 27 296 数値は、リストの中の、ひとつの要素になります。
;
#X text 51 335 ひとつの変数:;
#X text 216 333 二つの変数:;
#X text 27 453 しかし、本当にすごいのは、複数の変数を扱えることなのです。
;
#X text 27 470 同じメッセージのなかに、2つ以上の数値を得るために　
;
#X text 27 486 "pack"オブジェクトが必要になるでしょう。
;
#X text 124 554 <-- "pack" の引数は、インレットの数をセットします。
;
#X text 86 623 ※一番左側のホットインレットにメッセージが入力された時のみ
;
#X text 97 638 packの出力が行われる;
#X connect 1 0 14 0;
#X connect 2 0 14 0;
#X connect 3 0 18 0;
#X connect 4 0 3 0;
#X connect 5 0 0 0;
#X connect 6 0 5 0;
#X connect 7 0 17 0;
#X connect 8 0 20 0;
#X connect 9 0 20 1;
#X connect 12 0 11 0;
#X connect 13 0 10 0;
#X connect 15 0 14 0;
#X connect 20 0 22 0;
#X connect 21 0 20 2;
#X connect 22 0 19 0;
