#N canvas 731 455 675 625 12;
#X text 406 593 updated for Pd version 0.34;
#X obj 39 314 receive;
#X obj 39 285 send;
#X obj 39 371 pack;
#X obj 111 315 r;
#X obj 82 285 s;
#X obj 40 430 timer;
#X obj 40 142 float;
#X obj 39 257 select;
#X obj 40 171 +;
#X obj 40 199 >=;
#X obj 39 228 print;
#X obj 39 342 trigger;
#X obj 95 142 f;
#X obj 100 258 sel;
#X obj 111 341 t;
#X obj 39 400 unpack;
#X obj 40 517 pipe;
#X obj 40 459 delay;
#X obj 40 488 metro;
#X text 75 171 (etc.);
#X text 74 199 (etc.);
#X text 12 10 11.ここまでのまとめ;
#X text 20 67 これまで出てきたオブジェクトをまとめてみます。
;
#X text 23 83 いくつかのオブジェクトは、省略表記もあります。
;
#X text 21 99 各、オブジェクトを右クリックし、ヘルプで詳細な説明をみることができます。
;
#X text 150 142 数値を保持（floatは、浮動小数点の意）
;
#X text 150 172 四則演算(arithmetic);
#X text 150 199 比較演算(comparison);
#X text 150 228 プリントアウト;
#X text 150 257 ２つの同じ数値のテスト;
#X text 150 284 ワイヤレス送信機;
#X text 150 314 ワイヤレス受信機;
#X text 150 340 順番と書式によるメッセージの制御;
#X text 150 372 数値を結合して、ひとつのリストへ;
#X text 150 399 数値リストを分割;
#X text 150 428 経過時間の計測;
#X text 150 459 ディレイ後メッセージの通過(bangメッセージのみ)
;
#X text 150 489 メッセージの反復;
#X text 150 517 複数要素のためのディレイ;
#X text 38 555 まだまだ他に、たくさんあります。;
#X text 36 570 ../5.reference のINTRO.txtに、リファレンスパッチがあります。
;
