#N canvas 1229 111 606 560 12;
#X floatatom 38 186 0 0 0 0 - - -;
#X floatatom 191 186 0 0 0 0 - - -;
#X text 356 264 updated for Pd version 0.34;
#X obj 38 159 r one-a;
#X obj 191 159 r two-a;
#X floatatom 110 186 0 0 0 0 - - -;
#X floatatom 264 186 0 0 0 0 - - -;
#X obj 110 159 r one-b;
#X obj 264 159 r two-b;
#X floatatom 29 59 0 0 0 0 - - -;
#X floatatom 124 58 0 0 0 0 - - -;
#X floatatom 167 60 0 0 0 0 - - -;
#X floatatom 264 58 0 0 0 0 - - -;
#X text 32 14 ローカルの送信受信を、アブストラクションで得るために
;
#X text 31 29 dollarsignsを、以下のように使えます;
#X text 26 112 両方のコピーを開いて何が起こるか見てください...
;
#X text 335 148 ｒは、receiveオブジェクト;
#X text 338 163 この r に対応する　send は;
#X text 337 177 dollarsignアブストラクションにある。;
#X text 336 193 [s \$1-c]、[s \$1-b];
#X obj 29 85 dollarsign one;
#X obj 167 85 dollarsign two;
#X connect 3 0 0 0;
#X connect 4 0 1 0;
#X connect 7 0 5 0;
#X connect 8 0 6 0;
#X connect 9 0 20 0;
#X connect 10 0 20 1;
#X connect 11 0 21 0;
#X connect 12 0 21 1;
