#N canvas 62 73 586 604 12;
#X obj 207 44 inlet;
#X obj 207 71 s \$1-a;
#X obj 302 72 s \$1-b;
#X text 331 347 updated for Pd version 0.34;
#X obj 302 47 inlet;
#X obj 62 259 s \$1-c;
#X obj 62 289 r \$1-c;
#X floatatom 62 228 5 0 0 0 - - -;
#X floatatom 62 317 5 0 0 0 - - -;
#X obj 164 260 s here's-what-happens-if-you-dont;
#X obj 163 290 r here's-what-happens-if-you-dont;
#X floatatom 163 318 5 0 0 0 - - -;
#X floatatom 164 230 5 0 0 0 - - -;
#X floatatom 487 234 5 0 0 0 - - -;
#X floatatom 488 317 5 0 0 0 - - -;
#X obj 487 261 s \$0-d;
#X obj 488 291 r \$0-d;
#X text 37 9 これは、13.locality.pd"で呼び出される dollarsign.pdです。
;
#X text 48 94 上のsendsには "one-a"などという名前をつきます。
;
#X text 50 111 開いたウィンドウのタイトルバーにこの特別な継承の引数が
;
#X text 49 127 ついているのがわかると思いますが、
;
#X text 48 144 この場合、そこから"one"を継承して、"one-a"となります。
;
#X text 48 160 この方法を下に示すように、内部のローカルな接続にも使うことができます。
;
#X text 51 174 "\$1-c"ボックスは、ウィンドウ間でクロストークしながら、ローカルに動作します。
;
#X text 50 192 右側のボックスもまた、ユニークな名前をもちますので、"1006"などと書く必要はありません。
;
#X connect 0 0 1 0;
#X connect 4 0 2 0;
#X connect 6 0 8 0;
#X connect 7 0 5 0;
#X connect 10 0 11 0;
#X connect 12 0 9 0;
#X connect 13 0 15 0;
#X connect 16 0 14 0;
