#N canvas 615 349 588 764 12;
#X text 324 723 updated for Pd version 0.34;
#X obj 88 122 send \$1;
#X obj 199 122 + \$2;
#X floatatom 303 95 0 0 0 0 - - -;
#X obj 303 146 print;
#X msg 303 122 blah \$1;
#X msg 188 333 bang;
#X obj 188 361 symbol \$1;
#X msg 98 333 bang;
#X obj 98 361 float \$2;
#X floatatom 98 388 5 0 0 0 - - -;
#X symbolatom 188 390 10 0 0 0 - - -;
#X msg 97 444 bang;
#X obj 97 468 float \$2;
#X msg 97 495 five \$1;
#X obj 97 520 print;
#X msg 96 593 bang;
#X obj 96 645 symbol \$1;
#X obj 215 641 f \$2;
#X obj 96 621 t b b;
#X obj 95 668 pack symbol float;
#X msg 95 694 six \$1 \$2;
#X obj 95 721 print;
#X text 28 52 アブストラクションが作られたときの引数を参照します。
;
#X text 30 36 オブジェクトボックスの中では、\$1 は、
;
#X text 29 69 メッセージボックスでは、それらは動的に変化します。
;
#X text 36 196 ちょっと奇妙にきこえるかもしれません。
;
#X text 35 212 しかし、オブジェクトボックスとメッセージボックスは実際には、メッセージではなく、
;
#X text 33 228 オブジェクトボックスの場合、メッセージは
;
#X text 32 244 作られたときに通過し、メッセージボックスの場合は;
#X text 30 262 メッセージが作られた時につかわれるのです。
;
#X text 36 294 ではどのように、メッセージの中に引数をいれるか？
;
#X text 37 309 "float" and "symbol"を使えばいいのです;
#X text 41 418 もしのぞむなら、メッセージボックスに接続する:
;
#X text 31 566 ひとつ以上の引数の結合:;
#X text 34 6 これは、14.dollarsignes.pd　で使われるアブストラクトです
;
#X connect 3 0 5 0;
#X connect 5 0 4 0;
#X connect 6 0 7 0;
#X connect 7 0 11 0;
#X connect 8 0 9 0;
#X connect 9 0 10 0;
#X connect 12 0 13 0;
#X connect 13 0 14 0;
#X connect 14 0 15 0;
#X connect 16 0 19 0;
#X connect 17 0 20 0;
#X connect 18 0 20 1;
#X connect 19 0 17 0;
#X connect 19 1 18 0;
#X connect 20 0 21 0;
#X connect 21 0 22 0;
